<?xml version="1.0" encoding="UTF-8" standalone="no"?>
<!DOCTYPE svg PUBLIC "-//W3C//DTD SVG 1.1//EN"
 "http://www.w3.org/Graphics/SVG/1.1/DTD/svg11.dtd">
<!-- Generated by graphviz version 2.38.0 (20140413.2041)
 -->
<!-- Title: %3 Pages: 1 -->
<svg width="2072pt" height="620pt"
 viewBox="0.00 0.00 2071.79 620.00" xmlns="http://www.w3.org/2000/svg" xmlns:xlink="http://www.w3.org/1999/xlink">
<g id="graph0" class="graph" transform="scale(1 1) rotate(0) translate(4 616)">
<title>%3</title>
<polygon fill="white" stroke="none" points="-4,4 -4,-616 2067.79,-616 2067.79,4 -4,4"/>
<!-- [root] azurerm_availability_set.az_cace_dev02ts01_avset01 -->
<g id="node1" class="node"><title>[root] azurerm_availability_set.az_cace_dev02ts01_avset01</title>
<polygon fill="none" stroke="black" points="405.5,-180 97.5,-180 97.5,-144 405.5,-144 405.5,-180"/>
<text text-anchor="middle" x="251.5" y="-158.3" font-family="Times,serif" font-size="14.00">azurerm_availability_set.az_cace_dev02ts01_avset01</text>
</g>
<!-- [root] azurerm_resource_group.az_cace_dev02ts01_resourcegroup01 -->
<g id="node10" class="node"><title>[root] azurerm_resource_group.az_cace_dev02ts01_resourcegroup01</title>
<polygon fill="none" stroke="black" points="1039,-108 680,-108 680,-72 1039,-72 1039,-108"/>
<text text-anchor="middle" x="859.5" y="-86.3" font-family="Times,serif" font-size="14.00">azurerm_resource_group.az_cace_dev02ts01_resourcegroup01</text>
</g>
<!-- [root] azurerm_availability_set.az_cace_dev02ts01_avset01&#45;&gt;[root] azurerm_resource_group.az_cace_dev02ts01_resourcegroup01 -->
<g id="edge1" class="edge"><title>[root] azurerm_availability_set.az_cace_dev02ts01_avset01&#45;&gt;[root] azurerm_resource_group.az_cace_dev02ts01_resourcegroup01</title>
<path fill="none" stroke="black" d="M399.456,-143.966C490.941,-133.433 608.292,-119.922 701.573,-109.182"/>
<polygon fill="black" stroke="black" points="702.138,-112.641 711.672,-108.02 701.337,-105.687 702.138,-112.641"/>
</g>
<!-- [root] azurerm_lb.az_cace_dev02ts01_lb01 -->
<g id="node2" class="node"><title>[root] azurerm_lb.az_cace_dev02ts01_lb01</title>
<polygon fill="none" stroke="black" points="1792.5,-252 1574.5,-252 1574.5,-216 1792.5,-216 1792.5,-252"/>
<text text-anchor="middle" x="1683.5" y="-230.3" font-family="Times,serif" font-size="14.00">azurerm_lb.az_cace_dev02ts01_lb01</text>
</g>
<!-- [root] azurerm_public_ip.az_cace_dev02ts01_publicip_dns -->
<g id="node9" class="node"><title>[root] azurerm_public_ip.az_cace_dev02ts01_publicip_dns</title>
<polygon fill="none" stroke="black" points="1836,-180 1531,-180 1531,-144 1836,-144 1836,-180"/>
<text text-anchor="middle" x="1683.5" y="-158.3" font-family="Times,serif" font-size="14.00">azurerm_public_ip.az_cace_dev02ts01_publicip_dns</text>
</g>
<!-- [root] azurerm_lb.az_cace_dev02ts01_lb01&#45;&gt;[root] azurerm_public_ip.az_cace_dev02ts01_publicip_dns -->
<g id="edge2" class="edge"><title>[root] azurerm_lb.az_cace_dev02ts01_lb01&#45;&gt;[root] azurerm_public_ip.az_cace_dev02ts01_publicip_dns</title>
<path fill="none" stroke="black" d="M1683.5,-215.697C1683.5,-207.983 1683.5,-198.712 1683.5,-190.112"/>
<polygon fill="black" stroke="black" points="1687,-190.104 1683.5,-180.104 1680,-190.104 1687,-190.104"/>
</g>
<!-- [root] azurerm_lb_backend_address_pool.az_cace_dev02ts01_lb01_bap01 -->
<g id="node3" class="node"><title>[root] azurerm_lb_backend_address_pool.az_cace_dev02ts01_lb01_bap01</title>
<polygon fill="none" stroke="black" points="1647.5,-324 1259.5,-324 1259.5,-288 1647.5,-288 1647.5,-324"/>
<text text-anchor="middle" x="1453.5" y="-302.3" font-family="Times,serif" font-size="14.00">azurerm_lb_backend_address_pool.az_cace_dev02ts01_lb01_bap01</text>
</g>
<!-- [root] azurerm_lb_backend_address_pool.az_cace_dev02ts01_lb01_bap01&#45;&gt;[root] azurerm_lb.az_cace_dev02ts01_lb01 -->
<g id="edge3" class="edge"><title>[root] azurerm_lb_backend_address_pool.az_cace_dev02ts01_lb01_bap01&#45;&gt;[root] azurerm_lb.az_cace_dev02ts01_lb01</title>
<path fill="none" stroke="black" d="M1509.47,-287.966C1542.03,-278.057 1583.24,-265.514 1617.39,-255.121"/>
<polygon fill="black" stroke="black" points="1618.73,-258.371 1627.28,-252.111 1616.69,-251.674 1618.73,-258.371"/>
</g>
<!-- [root] azurerm_lb_probe.az_cace_dev02ts01_lb01_probe01 -->
<g id="node4" class="node"><title>[root] azurerm_lb_probe.az_cace_dev02ts01_lb01_probe01</title>
<polygon fill="none" stroke="black" points="1973,-324 1666,-324 1666,-288 1973,-288 1973,-324"/>
<text text-anchor="middle" x="1819.5" y="-302.3" font-family="Times,serif" font-size="14.00">azurerm_lb_probe.az_cace_dev02ts01_lb01_probe01</text>
</g>
<!-- [root] azurerm_lb_probe.az_cace_dev02ts01_lb01_probe01&#45;&gt;[root] azurerm_lb.az_cace_dev02ts01_lb01 -->
<g id="edge4" class="edge"><title>[root] azurerm_lb_probe.az_cace_dev02ts01_lb01_probe01&#45;&gt;[root] azurerm_lb.az_cace_dev02ts01_lb01</title>
<path fill="none" stroke="black" d="M1786.23,-287.876C1768.04,-278.512 1745.31,-266.814 1725.86,-256.803"/>
<polygon fill="black" stroke="black" points="1727.39,-253.654 1716.9,-252.19 1724.19,-259.878 1727.39,-253.654"/>
</g>
<!-- [root] azurerm_lb_rule.az_cace_dev02ts01_lb01_rule01 -->
<g id="node5" class="node"><title>[root] azurerm_lb_rule.az_cace_dev02ts01_lb01_rule01</title>
<polygon fill="none" stroke="black" points="1684,-396 1397,-396 1397,-360 1684,-360 1684,-396"/>
<text text-anchor="middle" x="1540.5" y="-374.3" font-family="Times,serif" font-size="14.00">azurerm_lb_rule.az_cace_dev02ts01_lb01_rule01</text>
</g>
<!-- [root] azurerm_lb_rule.az_cace_dev02ts01_lb01_rule01&#45;&gt;[root] azurerm_lb_backend_address_pool.az_cace_dev02ts01_lb01_bap01 -->
<g id="edge5" class="edge"><title>[root] azurerm_lb_rule.az_cace_dev02ts01_lb01_rule01&#45;&gt;[root] azurerm_lb_backend_address_pool.az_cace_dev02ts01_lb01_bap01</title>
<path fill="none" stroke="black" d="M1518.99,-359.697C1508.04,-350.881 1494.55,-340.032 1482.68,-330.474"/>
<polygon fill="black" stroke="black" points="1484.74,-327.646 1474.76,-324.104 1480.36,-333.1 1484.74,-327.646"/>
</g>
<!-- [root] azurerm_lb_rule.az_cace_dev02ts01_lb01_rule01&#45;&gt;[root] azurerm_lb_probe.az_cace_dev02ts01_lb01_probe01 -->
<g id="edge6" class="edge"><title>[root] azurerm_lb_rule.az_cace_dev02ts01_lb01_rule01&#45;&gt;[root] azurerm_lb_probe.az_cace_dev02ts01_lb01_probe01</title>
<path fill="none" stroke="black" d="M1608.39,-359.966C1648.56,-349.887 1699.6,-337.082 1741.43,-326.588"/>
<polygon fill="black" stroke="black" points="1742.45,-329.939 1751.3,-324.111 1740.75,-323.15 1742.45,-329.939"/>
</g>
<!-- [root] azurerm_network_interface.az_cace_dev02ts01_networkinterface -->
<g id="node6" class="node"><title>[root] azurerm_network_interface.az_cace_dev02ts01_networkinterface</title>
<polygon fill="none" stroke="black" points="915.5,-396 541.5,-396 541.5,-360 915.5,-360 915.5,-396"/>
<text text-anchor="middle" x="728.5" y="-374.3" font-family="Times,serif" font-size="14.00">azurerm_network_interface.az_cace_dev02ts01_networkinterface</text>
</g>
<!-- [root] azurerm_network_interface.az_cace_dev02ts01_networkinterface&#45;&gt;[root] azurerm_lb_backend_address_pool.az_cace_dev02ts01_lb01_bap01 -->
<g id="edge7" class="edge"><title>[root] azurerm_network_interface.az_cace_dev02ts01_networkinterface&#45;&gt;[root] azurerm_lb_backend_address_pool.az_cace_dev02ts01_lb01_bap01</title>
<path fill="none" stroke="black" d="M904.928,-359.966C1014.68,-349.369 1155.65,-335.758 1267.21,-324.987"/>
<polygon fill="black" stroke="black" points="1267.61,-328.465 1277.22,-324.02 1266.93,-321.497 1267.61,-328.465"/>
</g>
<!-- [root] azurerm_network_security_group.az_cace_dev02ts01_networksecuritygroup01 -->
<g id="node7" class="node"><title>[root] azurerm_network_security_group.az_cace_dev02ts01_networksecuritygroup01</title>
<polygon fill="none" stroke="black" points="871.5,-180 423.5,-180 423.5,-144 871.5,-144 871.5,-180"/>
<text text-anchor="middle" x="647.5" y="-158.3" font-family="Times,serif" font-size="14.00">azurerm_network_security_group.az_cace_dev02ts01_networksecuritygroup01</text>
</g>
<!-- [root] azurerm_network_interface.az_cace_dev02ts01_networkinterface&#45;&gt;[root] azurerm_network_security_group.az_cace_dev02ts01_networksecuritygroup01 -->
<g id="edge8" class="edge"><title>[root] azurerm_network_interface.az_cace_dev02ts01_networkinterface&#45;&gt;[root] azurerm_network_security_group.az_cace_dev02ts01_networksecuritygroup01</title>
<path fill="none" stroke="black" d="M700.096,-359.785C687.693,-350.73 674.238,-338.49 666.5,-324 643.77,-281.435 642.963,-223.672 644.91,-190.159"/>
<polygon fill="black" stroke="black" points="648.401,-190.401 645.615,-180.18 641.419,-189.908 648.401,-190.401"/>
</g>
<!-- [root] azurerm_public_ip.az_cace_dev02ts01_publicip -->
<g id="node8" class="node"><title>[root] azurerm_public_ip.az_cace_dev02ts01_publicip</title>
<polygon fill="none" stroke="black" points="1241,-324 962,-324 962,-288 1241,-288 1241,-324"/>
<text text-anchor="middle" x="1101.5" y="-302.3" font-family="Times,serif" font-size="14.00">azurerm_public_ip.az_cace_dev02ts01_publicip</text>
</g>
<!-- [root] azurerm_network_interface.az_cace_dev02ts01_networkinterface&#45;&gt;[root] azurerm_public_ip.az_cace_dev02ts01_publicip -->
<g id="edge9" class="edge"><title>[root] azurerm_network_interface.az_cace_dev02ts01_networkinterface&#45;&gt;[root] azurerm_public_ip.az_cace_dev02ts01_publicip</title>
<path fill="none" stroke="black" d="M819.269,-359.966C874.093,-349.677 944.059,-336.547 1000.61,-325.933"/>
<polygon fill="black" stroke="black" points="1001.46,-329.335 1010.65,-324.05 1000.17,-322.455 1001.46,-329.335"/>
</g>
<!-- [root] azurerm_subnet.az_cace_dev02ts01_subnet01 -->
<g id="node12" class="node"><title>[root] azurerm_subnet.az_cace_dev02ts01_subnet01</title>
<polygon fill="none" stroke="black" points="943.5,-324 675.5,-324 675.5,-288 943.5,-288 943.5,-324"/>
<text text-anchor="middle" x="809.5" y="-302.3" font-family="Times,serif" font-size="14.00">azurerm_subnet.az_cace_dev02ts01_subnet01</text>
</g>
<!-- [root] azurerm_network_interface.az_cace_dev02ts01_networkinterface&#45;&gt;[root] azurerm_subnet.az_cace_dev02ts01_subnet01 -->
<g id="edge10" class="edge"><title>[root] azurerm_network_interface.az_cace_dev02ts01_networkinterface&#45;&gt;[root] azurerm_subnet.az_cace_dev02ts01_subnet01</title>
<path fill="none" stroke="black" d="M748.522,-359.697C758.626,-350.965 771.036,-340.24 782.018,-330.75"/>
<polygon fill="black" stroke="black" points="784.43,-333.291 789.708,-324.104 779.853,-327.995 784.43,-333.291"/>
</g>
<!-- [root] azurerm_network_security_group.az_cace_dev02ts01_networksecuritygroup01&#45;&gt;[root] azurerm_resource_group.az_cace_dev02ts01_resourcegroup01 -->
<g id="edge11" class="edge"><title>[root] azurerm_network_security_group.az_cace_dev02ts01_networksecuritygroup01&#45;&gt;[root] azurerm_resource_group.az_cace_dev02ts01_resourcegroup01</title>
<path fill="none" stroke="black" d="M699.09,-143.966C728.969,-134.1 766.76,-121.622 798.156,-111.255"/>
<polygon fill="black" stroke="black" points="799.28,-114.57 807.679,-108.111 797.086,-107.923 799.28,-114.57"/>
</g>
<!-- [root] azurerm_public_ip.az_cace_dev02ts01_publicip&#45;&gt;[root] azurerm_resource_group.az_cace_dev02ts01_resourcegroup01 -->
<g id="edge12" class="edge"><title>[root] azurerm_public_ip.az_cace_dev02ts01_publicip&#45;&gt;[root] azurerm_resource_group.az_cace_dev02ts01_resourcegroup01</title>
<path fill="none" stroke="black" d="M1141.69,-287.832C1203.46,-259.13 1309.82,-199.112 1261.5,-144 1246.64,-127.049 1145.99,-113.791 1049.13,-104.775"/>
<polygon fill="black" stroke="black" points="1049.45,-101.29 1039.17,-103.862 1048.81,-108.261 1049.45,-101.29"/>
</g>
<!-- [root] var.vm&#45;count -->
<g id="node16" class="node"><title>[root] var.vm&#45;count</title>
<ellipse fill="none" stroke="black" cx="1390.5" cy="-234" rx="81.4863" ry="18"/>
<text text-anchor="middle" x="1390.5" y="-230.3" font-family="Times,serif" font-size="14.00">[root] var.vm&#45;count</text>
</g>
<!-- [root] azurerm_public_ip.az_cace_dev02ts01_publicip&#45;&gt;[root] var.vm&#45;count -->
<g id="edge13" class="edge"><title>[root] azurerm_public_ip.az_cace_dev02ts01_publicip&#45;&gt;[root] var.vm&#45;count</title>
<path fill="none" stroke="black" d="M1171.83,-287.966C1219.46,-276.429 1281.84,-261.318 1327.78,-250.191"/>
<polygon fill="black" stroke="black" points="1328.72,-253.565 1337.62,-247.809 1327.07,-246.761 1328.72,-253.565"/>
</g>
<!-- [root] azurerm_public_ip.az_cace_dev02ts01_publicip_dns&#45;&gt;[root] azurerm_resource_group.az_cace_dev02ts01_resourcegroup01 -->
<g id="edge14" class="edge"><title>[root] azurerm_public_ip.az_cace_dev02ts01_publicip_dns&#45;&gt;[root] azurerm_resource_group.az_cace_dev02ts01_resourcegroup01</title>
<path fill="none" stroke="black" d="M1530.92,-148.038C1394.95,-136.487 1195.41,-119.536 1049.19,-107.115"/>
<polygon fill="black" stroke="black" points="1049.46,-103.625 1039.2,-106.266 1048.87,-110.6 1049.46,-103.625"/>
</g>
<!-- [root] var.dns&#45;prefix -->
<g id="node17" class="node"><title>[root] var.dns&#45;prefix</title>
<ellipse fill="none" stroke="black" cx="1799.5" cy="-90" rx="83.3857" ry="18"/>
<text text-anchor="middle" x="1799.5" y="-86.3" font-family="Times,serif" font-size="14.00">[root] var.dns&#45;prefix</text>
</g>
<!-- [root] azurerm_public_ip.az_cace_dev02ts01_publicip_dns&#45;&gt;[root] var.dns&#45;prefix -->
<g id="edge15" class="edge"><title>[root] azurerm_public_ip.az_cace_dev02ts01_publicip_dns&#45;&gt;[root] var.dns&#45;prefix</title>
<path fill="none" stroke="black" d="M1711.88,-143.876C1727.5,-134.45 1747.03,-122.66 1763.7,-112.606"/>
<polygon fill="black" stroke="black" points="1765.86,-115.389 1772.61,-107.226 1762.24,-109.396 1765.86,-115.389"/>
</g>
<!-- [root] provider.azurerm -->
<g id="node15" class="node"><title>[root] provider.azurerm</title>
<polygon fill="none" stroke="black" points="859.5,-36 757.447,-18 859.5,-3.55271e-15 961.553,-18 859.5,-36"/>
<text text-anchor="middle" x="859.5" y="-14.3" font-family="Times,serif" font-size="14.00">provider.azurerm</text>
</g>
<!-- [root] azurerm_resource_group.az_cace_dev02ts01_resourcegroup01&#45;&gt;[root] provider.azurerm -->
<g id="edge16" class="edge"><title>[root] azurerm_resource_group.az_cace_dev02ts01_resourcegroup01&#45;&gt;[root] provider.azurerm</title>
<path fill="none" stroke="black" d="M859.5,-71.6966C859.5,-63.9827 859.5,-54.7125 859.5,-46.1124"/>
<polygon fill="black" stroke="black" points="863,-46.1043 859.5,-36.1043 856,-46.1044 863,-46.1043"/>
</g>
<!-- [root] azurerm_storage_account.azcacedevtwots -->
<g id="node11" class="node"><title>[root] azurerm_storage_account.azcacedevtwots</title>
<polygon fill="none" stroke="black" points="245,-252 0,-252 0,-216 245,-216 245,-252"/>
<text text-anchor="middle" x="122.5" y="-230.3" font-family="Times,serif" font-size="14.00">azurerm_storage_account.azcacedevtwots</text>
</g>
<!-- [root] azurerm_storage_account.azcacedevtwots&#45;&gt;[root] azurerm_resource_group.az_cace_dev02ts01_resourcegroup01 -->
<g id="edge17" class="edge"><title>[root] azurerm_storage_account.azcacedevtwots&#45;&gt;[root] azurerm_resource_group.az_cace_dev02ts01_resourcegroup01</title>
<path fill="none" stroke="black" d="M106.487,-215.881C90.1053,-196.293 69.5366,-164.312 88.5,-144 127.369,-102.367 453.888,-92.6463 669.36,-90.82"/>
<polygon fill="black" stroke="black" points="669.564,-94.3185 679.535,-90.7389 669.508,-87.3188 669.564,-94.3185"/>
</g>
<!-- [root] azurerm_virtual_network.az_cace_dev02ts01_virtualnetwork01 -->
<g id="node14" class="node"><title>[root] azurerm_virtual_network.az_cace_dev02ts01_virtualnetwork01</title>
<polygon fill="none" stroke="black" points="1253,-180 890,-180 890,-144 1253,-144 1253,-180"/>
<text text-anchor="middle" x="1071.5" y="-158.3" font-family="Times,serif" font-size="14.00">azurerm_virtual_network.az_cace_dev02ts01_virtualnetwork01</text>
</g>
<!-- [root] azurerm_subnet.az_cace_dev02ts01_subnet01&#45;&gt;[root] azurerm_virtual_network.az_cace_dev02ts01_virtualnetwork01 -->
<g id="edge18" class="edge"><title>[root] azurerm_subnet.az_cace_dev02ts01_subnet01&#45;&gt;[root] azurerm_virtual_network.az_cace_dev02ts01_virtualnetwork01</title>
<path fill="none" stroke="black" d="M841.103,-287.871C888.609,-262.124 978.419,-213.448 1030.78,-185.072"/>
<polygon fill="black" stroke="black" points="1032.66,-188.031 1039.78,-180.189 1029.33,-181.877 1032.66,-188.031"/>
</g>
<!-- [root] azurerm_virtual_machine.az_cace_dev02ts01_vm -->
<g id="node13" class="node"><title>[root] azurerm_virtual_machine.az_cace_dev02ts01_vm</title>
<polygon fill="none" stroke="black" points="877.5,-468 587.5,-468 587.5,-432 877.5,-432 877.5,-468"/>
<text text-anchor="middle" x="732.5" y="-446.3" font-family="Times,serif" font-size="14.00">azurerm_virtual_machine.az_cace_dev02ts01_vm</text>
</g>
<!-- [root] azurerm_virtual_machine.az_cace_dev02ts01_vm&#45;&gt;[root] azurerm_availability_set.az_cace_dev02ts01_avset01 -->
<g id="edge19" class="edge"><title>[root] azurerm_virtual_machine.az_cace_dev02ts01_vm&#45;&gt;[root] azurerm_availability_set.az_cace_dev02ts01_avset01</title>
<path fill="none" stroke="black" d="M634.514,-431.961C600.999,-423.842 564.034,-412.244 532.5,-396 423.363,-339.782 318.494,-235.229 273.926,-187.682"/>
<polygon fill="black" stroke="black" points="276.425,-185.23 267.053,-180.289 271.298,-189.996 276.425,-185.23"/>
</g>
<!-- [root] azurerm_virtual_machine.az_cace_dev02ts01_vm&#45;&gt;[root] azurerm_network_interface.az_cace_dev02ts01_networkinterface -->
<g id="edge20" class="edge"><title>[root] azurerm_virtual_machine.az_cace_dev02ts01_vm&#45;&gt;[root] azurerm_network_interface.az_cace_dev02ts01_networkinterface</title>
<path fill="none" stroke="black" d="M731.511,-431.697C731.07,-423.983 730.541,-414.712 730.049,-406.112"/>
<polygon fill="black" stroke="black" points="733.542,-405.888 729.477,-396.104 726.554,-406.288 733.542,-405.888"/>
</g>
<!-- [root] azurerm_virtual_machine.az_cace_dev02ts01_vm&#45;&gt;[root] azurerm_storage_account.azcacedevtwots -->
<g id="edge21" class="edge"><title>[root] azurerm_virtual_machine.az_cace_dev02ts01_vm&#45;&gt;[root] azurerm_storage_account.azcacedevtwots</title>
<path fill="none" stroke="black" d="M597.77,-431.941C549.33,-423.749 494.759,-412.111 446.5,-396 337.068,-359.467 217.88,-292.479 159.267,-257.543"/>
<polygon fill="black" stroke="black" points="160.768,-254.362 150.391,-252.221 157.168,-260.366 160.768,-254.362"/>
</g>
<!-- [root] var.vm&#45;pass -->
<g id="node18" class="node"><title>[root] var.vm&#45;pass</title>
<ellipse fill="none" stroke="black" cx="1180.5" cy="-378" rx="76.8869" ry="18"/>
<text text-anchor="middle" x="1180.5" y="-374.3" font-family="Times,serif" font-size="14.00">[root] var.vm&#45;pass</text>
</g>
<!-- [root] azurerm_virtual_machine.az_cace_dev02ts01_vm&#45;&gt;[root] var.vm&#45;pass -->
<g id="edge22" class="edge"><title>[root] azurerm_virtual_machine.az_cace_dev02ts01_vm&#45;&gt;[root] var.vm&#45;pass</title>
<path fill="none" stroke="black" d="M859.65,-431.962C929.167,-422.249 1016.72,-409.373 1094.5,-396 1101.05,-394.874 1107.87,-393.637 1114.67,-392.36"/>
<polygon fill="black" stroke="black" points="1115.43,-395.779 1124.6,-390.469 1114.12,-388.903 1115.43,-395.779"/>
</g>
<!-- [root] var.vm&#45;user -->
<g id="node19" class="node"><title>[root] var.vm&#45;user</title>
<ellipse fill="none" stroke="black" cx="1009.5" cy="-378" rx="76.0865" ry="18"/>
<text text-anchor="middle" x="1009.5" y="-374.3" font-family="Times,serif" font-size="14.00">[root] var.vm&#45;user</text>
</g>
<!-- [root] azurerm_virtual_machine.az_cace_dev02ts01_vm&#45;&gt;[root] var.vm&#45;user -->
<g id="edge23" class="edge"><title>[root] azurerm_virtual_machine.az_cace_dev02ts01_vm&#45;&gt;[root] var.vm&#45;user</title>
<path fill="none" stroke="black" d="M799.908,-431.966C845.614,-420.415 905.494,-405.283 949.541,-394.152"/>
<polygon fill="black" stroke="black" points="950.413,-397.542 959.25,-391.699 948.697,-390.755 950.413,-397.542"/>
</g>
<!-- [root] azurerm_virtual_network.az_cace_dev02ts01_virtualnetwork01&#45;&gt;[root] azurerm_resource_group.az_cace_dev02ts01_resourcegroup01 -->
<g id="edge24" class="edge"><title>[root] azurerm_virtual_network.az_cace_dev02ts01_virtualnetwork01&#45;&gt;[root] azurerm_resource_group.az_cace_dev02ts01_resourcegroup01</title>
<path fill="none" stroke="black" d="M1019.91,-143.966C990.031,-134.1 952.24,-121.622 920.844,-111.255"/>
<polygon fill="black" stroke="black" points="921.914,-107.923 911.321,-108.111 919.72,-114.57 921.914,-107.923"/>
</g>
<!-- [root] meta.count&#45;boundary (count boundary fixup) -->
<g id="node20" class="node"><title>[root] meta.count&#45;boundary (count boundary fixup)</title>
<ellipse fill="none" stroke="black" cx="1390.5" cy="-522" rx="193.066" ry="18"/>
<text text-anchor="middle" x="1390.5" y="-518.3" font-family="Times,serif" font-size="14.00">[root] meta.count&#45;boundary (count boundary fixup)</text>
</g>
<!-- [root] meta.count&#45;boundary (count boundary fixup)&#45;&gt;[root] azurerm_lb_rule.az_cace_dev02ts01_lb01_rule01 -->
<g id="edge25" class="edge"><title>[root] meta.count&#45;boundary (count boundary fixup)&#45;&gt;[root] azurerm_lb_rule.az_cace_dev02ts01_lb01_rule01</title>
<path fill="none" stroke="black" d="M1493.51,-506.637C1515,-498.705 1535.15,-486.555 1548.5,-468 1561.32,-450.172 1557.52,-424.847 1551.56,-405.768"/>
<polygon fill="black" stroke="black" points="1554.81,-404.46 1548.21,-396.165 1548.19,-406.76 1554.81,-404.46"/>
</g>
<!-- [root] meta.count&#45;boundary (count boundary fixup)&#45;&gt;[root] azurerm_virtual_machine.az_cace_dev02ts01_vm -->
<g id="edge26" class="edge"><title>[root] meta.count&#45;boundary (count boundary fixup)&#45;&gt;[root] azurerm_virtual_machine.az_cace_dev02ts01_vm</title>
<path fill="none" stroke="black" d="M1266.72,-508.164C1167.18,-497.799 1023.41,-482.733 887.756,-468.133"/>
<polygon fill="black" stroke="black" points="887.906,-464.629 877.588,-467.037 887.156,-471.588 887.906,-464.629"/>
</g>
<!-- [root] output.lb_dns_name -->
<g id="node21" class="node"><title>[root] output.lb_dns_name</title>
<ellipse fill="none" stroke="black" cx="1958.5" cy="-234" rx="105.082" ry="18"/>
<text text-anchor="middle" x="1958.5" y="-230.3" font-family="Times,serif" font-size="14.00">[root] output.lb_dns_name</text>
</g>
<!-- [root] meta.count&#45;boundary (count boundary fixup)&#45;&gt;[root] output.lb_dns_name -->
<g id="edge27" class="edge"><title>[root] meta.count&#45;boundary (count boundary fixup)&#45;&gt;[root] output.lb_dns_name</title>
<path fill="none" stroke="black" d="M1473.59,-505.687C1621.73,-476.499 1921.61,-408.237 1981.5,-324 1994.77,-305.333 1985.93,-279.625 1975.61,-260.637"/>
<polygon fill="black" stroke="black" points="1978.58,-258.781 1970.51,-251.915 1972.53,-262.315 1978.58,-258.781"/>
</g>
<!-- [root] output.vm_pass -->
<g id="node22" class="node"><title>[root] output.vm_pass</title>
<ellipse fill="none" stroke="black" cx="1180.5" cy="-450" rx="89.0842" ry="18"/>
<text text-anchor="middle" x="1180.5" y="-446.3" font-family="Times,serif" font-size="14.00">[root] output.vm_pass</text>
</g>
<!-- [root] meta.count&#45;boundary (count boundary fixup)&#45;&gt;[root] output.vm_pass -->
<g id="edge28" class="edge"><title>[root] meta.count&#45;boundary (count boundary fixup)&#45;&gt;[root] output.vm_pass</title>
<path fill="none" stroke="black" d="M1341.26,-504.588C1309.16,-493.885 1267.25,-479.916 1234.27,-468.923"/>
<polygon fill="black" stroke="black" points="1235.38,-465.603 1224.78,-465.761 1233.16,-472.243 1235.38,-465.603"/>
</g>
<!-- [root] output.vm_public_ip -->
<g id="node23" class="node"><title>[root] output.vm_public_ip</title>
<ellipse fill="none" stroke="black" cx="1432.5" cy="-450" rx="107.482" ry="18"/>
<text text-anchor="middle" x="1432.5" y="-446.3" font-family="Times,serif" font-size="14.00">[root] output.vm_public_ip</text>
</g>
<!-- [root] meta.count&#45;boundary (count boundary fixup)&#45;&gt;[root] output.vm_public_ip -->
<g id="edge29" class="edge"><title>[root] meta.count&#45;boundary (count boundary fixup)&#45;&gt;[root] output.vm_public_ip</title>
<path fill="none" stroke="black" d="M1400.88,-503.697C1405.76,-495.559 1411.69,-485.689 1417.08,-476.701"/>
<polygon fill="black" stroke="black" points="1420.09,-478.48 1422.24,-468.104 1414.09,-474.879 1420.09,-478.48"/>
</g>
<!-- [root] output.vm_user -->
<g id="node24" class="node"><title>[root] output.vm_user</title>
<ellipse fill="none" stroke="black" cx="984.5" cy="-450" rx="89.0842" ry="18"/>
<text text-anchor="middle" x="984.5" y="-446.3" font-family="Times,serif" font-size="14.00">[root] output.vm_user</text>
</g>
<!-- [root] meta.count&#45;boundary (count boundary fixup)&#45;&gt;[root] output.vm_user -->
<g id="edge30" class="edge"><title>[root] meta.count&#45;boundary (count boundary fixup)&#45;&gt;[root] output.vm_user</title>
<path fill="none" stroke="black" d="M1302.87,-505.954C1241.23,-495.362 1156.82,-480.84 1082.5,-468 1075.11,-466.722 1067.4,-465.389 1059.7,-464.055"/>
<polygon fill="black" stroke="black" points="1060.05,-460.564 1049.6,-462.306 1058.86,-467.462 1060.05,-460.564"/>
</g>
<!-- [root] output.lb_dns_name&#45;&gt;[root] var.dns&#45;prefix -->
<g id="edge31" class="edge"><title>[root] output.lb_dns_name&#45;&gt;[root] var.dns&#45;prefix</title>
<path fill="none" stroke="black" d="M1939.64,-216.153C1911.43,-190.959 1858.14,-143.367 1826.02,-114.685"/>
<polygon fill="black" stroke="black" points="1828.13,-111.876 1818.34,-107.825 1823.47,-117.097 1828.13,-111.876"/>
</g>
<!-- [root] output.vm_pass&#45;&gt;[root] var.vm&#45;pass -->
<g id="edge32" class="edge"><title>[root] output.vm_pass&#45;&gt;[root] var.vm&#45;pass</title>
<path fill="none" stroke="black" d="M1180.5,-431.697C1180.5,-423.983 1180.5,-414.712 1180.5,-406.112"/>
<polygon fill="black" stroke="black" points="1184,-406.104 1180.5,-396.104 1177,-406.104 1184,-406.104"/>
</g>
<!-- [root] output.vm_public_ip&#45;&gt;[root] azurerm_public_ip.az_cace_dev02ts01_publicip -->
<g id="edge33" class="edge"><title>[root] output.vm_public_ip&#45;&gt;[root] azurerm_public_ip.az_cace_dev02ts01_publicip</title>
<path fill="none" stroke="black" d="M1405.35,-432.462C1373.09,-413.276 1317.22,-381.532 1266.5,-360 1236.64,-347.324 1202.67,-335.925 1173.34,-326.975"/>
<polygon fill="black" stroke="black" points="1174.17,-323.57 1163.59,-324.035 1172.15,-330.272 1174.17,-323.57"/>
</g>
<!-- [root] output.vm_user&#45;&gt;[root] var.vm&#45;user -->
<g id="edge34" class="edge"><title>[root] output.vm_user&#45;&gt;[root] var.vm&#45;user</title>
<path fill="none" stroke="black" d="M990.68,-431.697C993.495,-423.813 996.891,-414.304 1000.02,-405.546"/>
<polygon fill="black" stroke="black" points="1003.32,-406.699 1003.39,-396.104 996.732,-404.345 1003.32,-406.699"/>
</g>
<!-- [root] provider.azurerm (close) -->
<g id="node25" class="node"><title>[root] provider.azurerm (close)</title>
<ellipse fill="none" stroke="black" cx="1058.5" cy="-522" rx="120.779" ry="18"/>
<text text-anchor="middle" x="1058.5" y="-518.3" font-family="Times,serif" font-size="14.00">[root] provider.azurerm (close)</text>
</g>
<!-- [root] provider.azurerm (close)&#45;&gt;[root] azurerm_lb_rule.az_cace_dev02ts01_lb01_rule01 -->
<g id="edge35" class="edge"><title>[root] provider.azurerm (close)&#45;&gt;[root] azurerm_lb_rule.az_cace_dev02ts01_lb01_rule01</title>
<path fill="none" stroke="black" d="M1149.33,-510.045C1190.58,-502.386 1238.88,-489.51 1278.5,-468 1298.95,-456.9 1296.03,-443.059 1316.5,-432 1344.26,-417.002 1376.2,-406.213 1407.11,-398.465"/>
<polygon fill="black" stroke="black" points="1408.2,-401.802 1417.1,-396.055 1406.56,-394.997 1408.2,-401.802"/>
</g>
<!-- [root] provider.azurerm (close)&#45;&gt;[root] azurerm_virtual_machine.az_cace_dev02ts01_vm -->
<g id="edge36" class="edge"><title>[root] provider.azurerm (close)&#45;&gt;[root] azurerm_virtual_machine.az_cace_dev02ts01_vm</title>
<path fill="none" stroke="black" d="M992.529,-506.834C943.4,-496.285 875.78,-481.766 821.811,-470.177"/>
<polygon fill="black" stroke="black" points="822.412,-466.727 811.9,-468.049 820.942,-473.571 822.412,-466.727"/>
</g>
<!-- [root] provisioner.file (close) -->
<g id="node26" class="node"><title>[root] provisioner.file (close)</title>
<ellipse fill="none" stroke="black" cx="497.5" cy="-522" rx="113.98" ry="18"/>
<text text-anchor="middle" x="497.5" y="-518.3" font-family="Times,serif" font-size="14.00">[root] provisioner.file (close)</text>
</g>
<!-- [root] provisioner.file (close)&#45;&gt;[root] azurerm_virtual_machine.az_cace_dev02ts01_vm -->
<g id="edge37" class="edge"><title>[root] provisioner.file (close)&#45;&gt;[root] azurerm_virtual_machine.az_cace_dev02ts01_vm</title>
<path fill="none" stroke="black" d="M548.492,-505.811C582.817,-495.587 628.433,-481.999 665.659,-470.91"/>
<polygon fill="black" stroke="black" points="666.839,-474.211 675.423,-468.002 664.84,-467.502 666.839,-474.211"/>
</g>
<!-- [root] provisioner.remote&#45;exec (close) -->
<g id="node27" class="node"><title>[root] provisioner.remote&#45;exec (close)</title>
<ellipse fill="none" stroke="black" cx="774.5" cy="-522" rx="145.674" ry="18"/>
<text text-anchor="middle" x="774.5" y="-518.3" font-family="Times,serif" font-size="14.00">[root] provisioner.remote&#45;exec (close)</text>
</g>
<!-- [root] provisioner.remote&#45;exec (close)&#45;&gt;[root] azurerm_virtual_machine.az_cace_dev02ts01_vm -->
<g id="edge38" class="edge"><title>[root] provisioner.remote&#45;exec (close)&#45;&gt;[root] azurerm_virtual_machine.az_cace_dev02ts01_vm</title>
<path fill="none" stroke="black" d="M764.118,-503.697C759.235,-495.559 753.313,-485.689 747.921,-476.701"/>
<polygon fill="black" stroke="black" points="750.909,-474.879 742.763,-468.104 744.906,-478.48 750.909,-474.879"/>
</g>
<!-- [root] root -->
<g id="node28" class="node"><title>[root] root</title>
<ellipse fill="none" stroke="black" cx="916.5" cy="-594" rx="47.3916" ry="18"/>
<text text-anchor="middle" x="916.5" y="-590.3" font-family="Times,serif" font-size="14.00">[root] root</text>
</g>
<!-- [root] root&#45;&gt;[root] meta.count&#45;boundary (count boundary fixup) -->
<g id="edge39" class="edge"><title>[root] root&#45;&gt;[root] meta.count&#45;boundary (count boundary fixup)</title>
<path fill="none" stroke="black" d="M959.821,-586.602C1032.26,-575.905 1180.05,-554.079 1282.14,-539.002"/>
<polygon fill="black" stroke="black" points="1282.81,-542.442 1292.19,-537.519 1281.78,-535.517 1282.81,-542.442"/>
</g>
<!-- [root] root&#45;&gt;[root] provider.azurerm (close) -->
<g id="edge40" class="edge"><title>[root] root&#45;&gt;[root] provider.azurerm (close)</title>
<path fill="none" stroke="black" d="M944.216,-579.337C964.737,-569.221 993.059,-555.26 1016.37,-543.766"/>
<polygon fill="black" stroke="black" points="1017.94,-546.895 1025.36,-539.335 1014.85,-540.617 1017.94,-546.895"/>
</g>
<!-- [root] root&#45;&gt;[root] provisioner.file (close) -->
<g id="edge41" class="edge"><title>[root] root&#45;&gt;[root] provisioner.file (close)</title>
<path fill="none" stroke="black" d="M874.018,-585.903C806.006,-574.54 671.353,-552.045 582.882,-537.264"/>
<polygon fill="black" stroke="black" points="583.305,-533.787 572.865,-535.591 582.152,-540.691 583.305,-533.787"/>
</g>
<!-- [root] root&#45;&gt;[root] provisioner.remote&#45;exec (close) -->
<g id="edge42" class="edge"><title>[root] root&#45;&gt;[root] provisioner.remote&#45;exec (close)</title>
<path fill="none" stroke="black" d="M888.784,-579.337C868.496,-569.336 840.582,-555.576 817.421,-544.158"/>
<polygon fill="black" stroke="black" points="818.668,-540.871 808.151,-539.588 815.572,-547.149 818.668,-540.871"/>
</g>
</g>
</svg>
