<?xml version="1.0" encoding="UTF-8" standalone="no"?>
<!DOCTYPE svg PUBLIC "-//W3C//DTD SVG 1.1//EN"
 "http://www.w3.org/Graphics/SVG/1.1/DTD/svg11.dtd">
<!-- Generated by graphviz version 2.38.0 (20140413.2041)
 -->
<!-- Title: %3 Pages: 1 -->
<svg width="1646pt" height="548pt"
 viewBox="0.00 0.00 1645.74 548.00" xmlns="http://www.w3.org/2000/svg" xmlns:xlink="http://www.w3.org/1999/xlink">
<g id="graph0" class="graph" transform="scale(1 1) rotate(0) translate(4 544)">
<title>%3</title>
<polygon fill="white" stroke="none" points="-4,4 -4,-544 1641.74,-544 1641.74,4 -4,4"/>
<!-- [root] azurerm_availability_set.az_cace_dev02mo01_avset01 -->
<g id="node1" class="node"><title>[root] azurerm_availability_set.az_cace_dev02mo01_avset01</title>
<polygon fill="none" stroke="black" points="1637.74,-252 1320.74,-252 1320.74,-216 1637.74,-216 1637.74,-252"/>
<text text-anchor="middle" x="1479.24" y="-230.3" font-family="Times,serif" font-size="14.00">azurerm_availability_set.az_cace_dev02mo01_avset01</text>
</g>
<!-- [root] azurerm_resource_group.az_cace_dev02mo01_resourcegroup01 -->
<g id="node5" class="node"><title>[root] azurerm_resource_group.az_cace_dev02mo01_resourcegroup01</title>
<polygon fill="none" stroke="black" points="1341.24,-108 973.24,-108 973.24,-72 1341.24,-72 1341.24,-108"/>
<text text-anchor="middle" x="1157.24" y="-86.3" font-family="Times,serif" font-size="14.00">azurerm_resource_group.az_cace_dev02mo01_resourcegroup01</text>
</g>
<!-- [root] azurerm_availability_set.az_cace_dev02mo01_avset01&#45;&gt;[root] azurerm_resource_group.az_cace_dev02mo01_resourcegroup01 -->
<g id="edge1" class="edge"><title>[root] azurerm_availability_set.az_cace_dev02mo01_avset01&#45;&gt;[root] azurerm_resource_group.az_cace_dev02mo01_resourcegroup01</title>
<path fill="none" stroke="black" d="M1463.36,-215.9C1443.66,-195.716 1408.14,-162.559 1371.24,-144 1341.65,-129.116 1307.6,-118.238 1275.5,-110.358"/>
<polygon fill="black" stroke="black" points="1276.15,-106.914 1265.61,-108.008 1274.53,-113.725 1276.15,-106.914"/>
</g>
<!-- [root] azurerm_network_interface.az_cace_dev02mo01_networkinterface -->
<g id="node2" class="node"><title>[root] azurerm_network_interface.az_cace_dev02mo01_networkinterface</title>
<polygon fill="none" stroke="black" points="1082.74,-324 699.74,-324 699.74,-288 1082.74,-288 1082.74,-324"/>
<text text-anchor="middle" x="891.24" y="-302.3" font-family="Times,serif" font-size="14.00">azurerm_network_interface.az_cace_dev02mo01_networkinterface</text>
</g>
<!-- [root] azurerm_network_security_group.az_cace_dev02mo01_networksecuritygroup01 -->
<g id="node3" class="node"><title>[root] azurerm_network_security_group.az_cace_dev02mo01_networksecuritygroup01</title>
<polygon fill="none" stroke="black" points="952.74,-180 495.74,-180 495.74,-144 952.74,-144 952.74,-180"/>
<text text-anchor="middle" x="724.24" y="-158.3" font-family="Times,serif" font-size="14.00">azurerm_network_security_group.az_cace_dev02mo01_networksecuritygroup01</text>
</g>
<!-- [root] azurerm_network_interface.az_cace_dev02mo01_networkinterface&#45;&gt;[root] azurerm_network_security_group.az_cace_dev02mo01_networksecuritygroup01 -->
<g id="edge2" class="edge"><title>[root] azurerm_network_interface.az_cace_dev02mo01_networkinterface&#45;&gt;[root] azurerm_network_security_group.az_cace_dev02mo01_networksecuritygroup01</title>
<path fill="none" stroke="black" d="M798.718,-287.888C777.955,-280.056 757.794,-268.64 743.24,-252 728.496,-235.142 724.255,-209.666 723.406,-190.284"/>
<polygon fill="black" stroke="black" points="726.904,-190.177 723.238,-180.237 719.905,-190.294 726.904,-190.177"/>
</g>
<!-- [root] azurerm_public_ip.az_cace_dev02mo01_publicip -->
<g id="node4" class="node"><title>[root] azurerm_public_ip.az_cace_dev02mo01_publicip</title>
<polygon fill="none" stroke="black" points="365.24,-252 77.2405,-252 77.2405,-216 365.24,-216 365.24,-252"/>
<text text-anchor="middle" x="221.24" y="-230.3" font-family="Times,serif" font-size="14.00">azurerm_public_ip.az_cace_dev02mo01_publicip</text>
</g>
<!-- [root] azurerm_network_interface.az_cace_dev02mo01_networkinterface&#45;&gt;[root] azurerm_public_ip.az_cace_dev02mo01_publicip -->
<g id="edge3" class="edge"><title>[root] azurerm_network_interface.az_cace_dev02mo01_networkinterface&#45;&gt;[root] azurerm_public_ip.az_cace_dev02mo01_publicip</title>
<path fill="none" stroke="black" d="M728.197,-287.966C620.784,-276.743 481.011,-262.14 375.44,-251.11"/>
<polygon fill="black" stroke="black" points="375.642,-247.613 365.333,-250.054 374.915,-254.575 375.642,-247.613"/>
</g>
<!-- [root] azurerm_subnet.az_cace_dev02mo01_subnet01 -->
<g id="node7" class="node"><title>[root] azurerm_subnet.az_cace_dev02mo01_subnet01</title>
<polygon fill="none" stroke="black" points="1029.74,-252 752.74,-252 752.74,-216 1029.74,-216 1029.74,-252"/>
<text text-anchor="middle" x="891.24" y="-230.3" font-family="Times,serif" font-size="14.00">azurerm_subnet.az_cace_dev02mo01_subnet01</text>
</g>
<!-- [root] azurerm_network_interface.az_cace_dev02mo01_networkinterface&#45;&gt;[root] azurerm_subnet.az_cace_dev02mo01_subnet01 -->
<g id="edge4" class="edge"><title>[root] azurerm_network_interface.az_cace_dev02mo01_networkinterface&#45;&gt;[root] azurerm_subnet.az_cace_dev02mo01_subnet01</title>
<path fill="none" stroke="black" d="M891.24,-287.697C891.24,-279.983 891.24,-270.712 891.24,-262.112"/>
<polygon fill="black" stroke="black" points="894.741,-262.104 891.24,-252.104 887.741,-262.104 894.741,-262.104"/>
</g>
<!-- [root] azurerm_network_security_group.az_cace_dev02mo01_networksecuritygroup01&#45;&gt;[root] azurerm_resource_group.az_cace_dev02mo01_resourcegroup01 -->
<g id="edge5" class="edge"><title>[root] azurerm_network_security_group.az_cace_dev02mo01_networksecuritygroup01&#45;&gt;[root] azurerm_resource_group.az_cace_dev02mo01_resourcegroup01</title>
<path fill="none" stroke="black" d="M829.611,-143.966C893.78,-133.592 975.821,-120.329 1041.75,-109.67"/>
<polygon fill="black" stroke="black" points="1042.46,-113.101 1051.77,-108.05 1041.34,-106.191 1042.46,-113.101"/>
</g>
<!-- [root] azurerm_public_ip.az_cace_dev02mo01_publicip&#45;&gt;[root] azurerm_resource_group.az_cace_dev02mo01_resourcegroup01 -->
<g id="edge6" class="edge"><title>[root] azurerm_public_ip.az_cace_dev02mo01_publicip&#45;&gt;[root] azurerm_resource_group.az_cace_dev02mo01_resourcegroup01</title>
<path fill="none" stroke="black" d="M165.615,-215.961C148.695,-207.881 132.007,-196.307 122.24,-180 114.019,-166.274 111.22,-155.599 122.24,-144 150.688,-114.059 670.887,-99.8014 962.709,-94.1333"/>
<polygon fill="black" stroke="black" points="963.062,-97.6273 972.992,-93.9353 962.927,-90.6286 963.062,-97.6273"/>
</g>
<!-- [root] var.dns&#45;prefix -->
<g id="node11" class="node"><title>[root] var.dns&#45;prefix</title>
<ellipse fill="none" stroke="black" cx="214.24" cy="-162" rx="83.3857" ry="18"/>
<text text-anchor="middle" x="214.24" y="-158.3" font-family="Times,serif" font-size="14.00">[root] var.dns&#45;prefix</text>
</g>
<!-- [root] azurerm_public_ip.az_cace_dev02mo01_publicip&#45;&gt;[root] var.dns&#45;prefix -->
<g id="edge7" class="edge"><title>[root] azurerm_public_ip.az_cace_dev02mo01_publicip&#45;&gt;[root] var.dns&#45;prefix</title>
<path fill="none" stroke="black" d="M219.51,-215.697C218.739,-207.983 217.812,-198.712 216.952,-190.112"/>
<polygon fill="black" stroke="black" points="220.429,-189.706 215.951,-180.104 213.463,-190.403 220.429,-189.706"/>
</g>
<!-- [root] var.vm&#45;count -->
<g id="node12" class="node"><title>[root] var.vm&#45;count</title>
<ellipse fill="none" stroke="black" cx="396.24" cy="-162" rx="81.4863" ry="18"/>
<text text-anchor="middle" x="396.24" y="-158.3" font-family="Times,serif" font-size="14.00">[root] var.vm&#45;count</text>
</g>
<!-- [root] azurerm_public_ip.az_cace_dev02mo01_publicip&#45;&gt;[root] var.vm&#45;count -->
<g id="edge8" class="edge"><title>[root] azurerm_public_ip.az_cace_dev02mo01_publicip&#45;&gt;[root] var.vm&#45;count</title>
<path fill="none" stroke="black" d="M264.05,-215.876C289.825,-205.566 322.671,-192.428 349.174,-181.827"/>
<polygon fill="black" stroke="black" points="350.642,-185.009 358.626,-178.046 348.042,-178.51 350.642,-185.009"/>
</g>
<!-- [root] provider.azurerm -->
<g id="node10" class="node"><title>[root] provider.azurerm</title>
<polygon fill="none" stroke="black" points="1157.24,-36 1055.19,-18 1157.24,-3.55271e-15 1259.29,-18 1157.24,-36"/>
<text text-anchor="middle" x="1157.24" y="-14.3" font-family="Times,serif" font-size="14.00">provider.azurerm</text>
</g>
<!-- [root] azurerm_resource_group.az_cace_dev02mo01_resourcegroup01&#45;&gt;[root] provider.azurerm -->
<g id="edge9" class="edge"><title>[root] azurerm_resource_group.az_cace_dev02mo01_resourcegroup01&#45;&gt;[root] provider.azurerm</title>
<path fill="none" stroke="black" d="M1157.24,-71.6966C1157.24,-63.9827 1157.24,-54.7125 1157.24,-46.1124"/>
<polygon fill="black" stroke="black" points="1160.74,-46.1043 1157.24,-36.1043 1153.74,-46.1044 1160.74,-46.1043"/>
</g>
<!-- [root] azurerm_storage_account.azcacedevtwomo -->
<g id="node6" class="node"><title>[root] azurerm_storage_account.azcacedevtwomo</title>
<polygon fill="none" stroke="black" points="1302.24,-252 1048.24,-252 1048.24,-216 1302.24,-216 1302.24,-252"/>
<text text-anchor="middle" x="1175.24" y="-230.3" font-family="Times,serif" font-size="14.00">azurerm_storage_account.azcacedevtwomo</text>
</g>
<!-- [root] azurerm_storage_account.azcacedevtwomo&#45;&gt;[root] azurerm_resource_group.az_cace_dev02mo01_resourcegroup01 -->
<g id="edge10" class="edge"><title>[root] azurerm_storage_account.azcacedevtwomo&#45;&gt;[root] azurerm_resource_group.az_cace_dev02mo01_resourcegroup01</title>
<path fill="none" stroke="black" d="M1279,-215.973C1331.89,-202.604 1379.81,-180.069 1352.24,-144 1341.5,-129.956 1309,-118.756 1273.54,-110.337"/>
<polygon fill="black" stroke="black" points="1274,-106.853 1263.47,-108.037 1272.44,-113.677 1274,-106.853"/>
</g>
<!-- [root] azurerm_virtual_network.az_cace_dev02mo01_virtualnetwork01 -->
<g id="node9" class="node"><title>[root] azurerm_virtual_network.az_cace_dev02mo01_virtualnetwork01</title>
<polygon fill="none" stroke="black" points="1343.24,-180 971.24,-180 971.24,-144 1343.24,-144 1343.24,-180"/>
<text text-anchor="middle" x="1157.24" y="-158.3" font-family="Times,serif" font-size="14.00">azurerm_virtual_network.az_cace_dev02mo01_virtualnetwork01</text>
</g>
<!-- [root] azurerm_subnet.az_cace_dev02mo01_subnet01&#45;&gt;[root] azurerm_virtual_network.az_cace_dev02mo01_virtualnetwork01 -->
<g id="edge11" class="edge"><title>[root] azurerm_subnet.az_cace_dev02mo01_subnet01&#45;&gt;[root] azurerm_virtual_network.az_cace_dev02mo01_virtualnetwork01</title>
<path fill="none" stroke="black" d="M955.971,-215.966C994.107,-205.93 1042.52,-193.19 1082.3,-182.721"/>
<polygon fill="black" stroke="black" points="1083.44,-186.041 1092.22,-180.111 1081.66,-179.271 1083.44,-186.041"/>
</g>
<!-- [root] azurerm_virtual_machine.az_cace_dev02mo01_vm -->
<g id="node8" class="node"><title>[root] azurerm_virtual_machine.az_cace_dev02mo01_vm</title>
<polygon fill="none" stroke="black" points="1040.74,-396 741.74,-396 741.74,-360 1040.74,-360 1040.74,-396"/>
<text text-anchor="middle" x="891.24" y="-374.3" font-family="Times,serif" font-size="14.00">azurerm_virtual_machine.az_cace_dev02mo01_vm</text>
</g>
<!-- [root] azurerm_virtual_machine.az_cace_dev02mo01_vm&#45;&gt;[root] azurerm_availability_set.az_cace_dev02mo01_avset01 -->
<g id="edge12" class="edge"><title>[root] azurerm_virtual_machine.az_cace_dev02mo01_vm&#45;&gt;[root] azurerm_availability_set.az_cace_dev02mo01_avset01</title>
<path fill="none" stroke="black" d="M969.153,-359.944C1014.96,-349.787 1073.97,-336.482 1126.24,-324 1222.24,-301.077 1332.46,-273.005 1403.84,-254.594"/>
<polygon fill="black" stroke="black" points="1404.84,-257.95 1413.65,-252.062 1403.09,-251.172 1404.84,-257.95"/>
</g>
<!-- [root] azurerm_virtual_machine.az_cace_dev02mo01_vm&#45;&gt;[root] azurerm_network_interface.az_cace_dev02mo01_networkinterface -->
<g id="edge13" class="edge"><title>[root] azurerm_virtual_machine.az_cace_dev02mo01_vm&#45;&gt;[root] azurerm_network_interface.az_cace_dev02mo01_networkinterface</title>
<path fill="none" stroke="black" d="M891.24,-359.697C891.24,-351.983 891.24,-342.712 891.24,-334.112"/>
<polygon fill="black" stroke="black" points="894.741,-334.104 891.24,-324.104 887.741,-334.104 894.741,-334.104"/>
</g>
<!-- [root] azurerm_virtual_machine.az_cace_dev02mo01_vm&#45;&gt;[root] azurerm_storage_account.azcacedevtwomo -->
<g id="edge14" class="edge"><title>[root] azurerm_virtual_machine.az_cace_dev02mo01_vm&#45;&gt;[root] azurerm_storage_account.azcacedevtwomo</title>
<path fill="none" stroke="black" d="M999.158,-359.961C1030.31,-352.05 1063.38,-340.575 1091.24,-324 1118.4,-307.841 1142.36,-280.412 1157.67,-260.266"/>
<polygon fill="black" stroke="black" points="1160.55,-262.253 1163.68,-252.132 1154.92,-258.091 1160.55,-262.253"/>
</g>
<!-- [root] var.vm&#45;pass -->
<g id="node13" class="node"><title>[root] var.vm&#45;pass</title>
<ellipse fill="none" stroke="black" cx="434.24" cy="-306" rx="76.8869" ry="18"/>
<text text-anchor="middle" x="434.24" y="-302.3" font-family="Times,serif" font-size="14.00">[root] var.vm&#45;pass</text>
</g>
<!-- [root] azurerm_virtual_machine.az_cace_dev02mo01_vm&#45;&gt;[root] var.vm&#45;pass -->
<g id="edge15" class="edge"><title>[root] azurerm_virtual_machine.az_cace_dev02mo01_vm&#45;&gt;[root] var.vm&#45;pass</title>
<path fill="none" stroke="black" d="M760.056,-359.993C688.945,-350.338 599.616,-337.505 520.24,-324 513.688,-322.885 506.868,-321.656 500.063,-320.384"/>
<polygon fill="black" stroke="black" points="500.614,-316.926 490.137,-318.498 499.308,-323.803 500.614,-316.926"/>
</g>
<!-- [root] var.vm&#45;user -->
<g id="node14" class="node"><title>[root] var.vm&#45;user</title>
<ellipse fill="none" stroke="black" cx="605.24" cy="-306" rx="76.0865" ry="18"/>
<text text-anchor="middle" x="605.24" y="-302.3" font-family="Times,serif" font-size="14.00">[root] var.vm&#45;user</text>
</g>
<!-- [root] azurerm_virtual_machine.az_cace_dev02mo01_vm&#45;&gt;[root] var.vm&#45;user -->
<g id="edge16" class="edge"><title>[root] azurerm_virtual_machine.az_cace_dev02mo01_vm&#45;&gt;[root] var.vm&#45;user</title>
<path fill="none" stroke="black" d="M821.643,-359.966C774.044,-348.315 711.558,-333.022 665.974,-321.865"/>
<polygon fill="black" stroke="black" points="666.771,-318.457 656.225,-319.479 665.107,-325.256 666.771,-318.457"/>
</g>
<!-- [root] azurerm_virtual_network.az_cace_dev02mo01_virtualnetwork01&#45;&gt;[root] azurerm_resource_group.az_cace_dev02mo01_resourcegroup01 -->
<g id="edge17" class="edge"><title>[root] azurerm_virtual_network.az_cace_dev02mo01_virtualnetwork01&#45;&gt;[root] azurerm_resource_group.az_cace_dev02mo01_resourcegroup01</title>
<path fill="none" stroke="black" d="M1157.24,-143.697C1157.24,-135.983 1157.24,-126.712 1157.24,-118.112"/>
<polygon fill="black" stroke="black" points="1160.74,-118.104 1157.24,-108.104 1153.74,-118.104 1160.74,-118.104"/>
</g>
<!-- [root] meta.count&#45;boundary (count boundary fixup) -->
<g id="node15" class="node"><title>[root] meta.count&#45;boundary (count boundary fixup)</title>
<ellipse fill="none" stroke="black" cx="289.24" cy="-450" rx="193.066" ry="18"/>
<text text-anchor="middle" x="289.24" y="-446.3" font-family="Times,serif" font-size="14.00">[root] meta.count&#45;boundary (count boundary fixup)</text>
</g>
<!-- [root] meta.count&#45;boundary (count boundary fixup)&#45;&gt;[root] azurerm_virtual_machine.az_cace_dev02mo01_vm -->
<g id="edge18" class="edge"><title>[root] meta.count&#45;boundary (count boundary fixup)&#45;&gt;[root] azurerm_virtual_machine.az_cace_dev02mo01_vm</title>
<path fill="none" stroke="black" d="M404.956,-435.545C498.662,-424.649 631.578,-409.193 734.774,-397.194"/>
<polygon fill="black" stroke="black" points="735.453,-400.639 744.981,-396.007 734.644,-393.685 735.453,-400.639"/>
</g>
<!-- [root] output.vm_dns_name -->
<g id="node16" class="node"><title>[root] output.vm_dns_name</title>
<ellipse fill="none" stroke="black" cx="229.24" cy="-306" rx="110.48" ry="18"/>
<text text-anchor="middle" x="229.24" y="-302.3" font-family="Times,serif" font-size="14.00">[root] output.vm_dns_name</text>
</g>
<!-- [root] meta.count&#45;boundary (count boundary fixup)&#45;&gt;[root] output.vm_dns_name -->
<g id="edge19" class="edge"><title>[root] meta.count&#45;boundary (count boundary fixup)&#45;&gt;[root] output.vm_dns_name</title>
<path fill="none" stroke="black" d="M282.003,-431.871C271.687,-407.457 252.66,-362.426 240.495,-333.635"/>
<polygon fill="black" stroke="black" points="243.62,-332.038 236.504,-324.189 237.172,-334.763 243.62,-332.038"/>
</g>
<!-- [root] output.vm_pass -->
<g id="node17" class="node"><title>[root] output.vm_pass</title>
<ellipse fill="none" stroke="black" cx="407.24" cy="-378" rx="89.0842" ry="18"/>
<text text-anchor="middle" x="407.24" y="-374.3" font-family="Times,serif" font-size="14.00">[root] output.vm_pass</text>
</g>
<!-- [root] meta.count&#45;boundary (count boundary fixup)&#45;&gt;[root] output.vm_pass -->
<g id="edge20" class="edge"><title>[root] meta.count&#45;boundary (count boundary fixup)&#45;&gt;[root] output.vm_pass</title>
<path fill="none" stroke="black" d="M317.805,-432.055C333.836,-422.545 353.995,-410.586 371.114,-400.431"/>
<polygon fill="black" stroke="black" points="372.937,-403.419 379.752,-395.307 369.365,-397.399 372.937,-403.419"/>
</g>
<!-- [root] output.vm_public_ip -->
<g id="node18" class="node"><title>[root] output.vm_public_ip</title>
<ellipse fill="none" stroke="black" cx="107.24" cy="-378" rx="107.482" ry="18"/>
<text text-anchor="middle" x="107.24" y="-374.3" font-family="Times,serif" font-size="14.00">[root] output.vm_public_ip</text>
</g>
<!-- [root] meta.count&#45;boundary (count boundary fixup)&#45;&gt;[root] output.vm_public_ip -->
<g id="edge21" class="edge"><title>[root] meta.count&#45;boundary (count boundary fixup)&#45;&gt;[root] output.vm_public_ip</title>
<path fill="none" stroke="black" d="M246.109,-432.411C219.592,-422.212 185.495,-409.098 157.724,-398.417"/>
<polygon fill="black" stroke="black" points="158.778,-395.072 148.188,-394.749 156.265,-401.605 158.778,-395.072"/>
</g>
<!-- [root] output.vm_user -->
<g id="node19" class="node"><title>[root] output.vm_user</title>
<ellipse fill="none" stroke="black" cx="604.24" cy="-378" rx="89.0842" ry="18"/>
<text text-anchor="middle" x="604.24" y="-374.3" font-family="Times,serif" font-size="14.00">[root] output.vm_user</text>
</g>
<!-- [root] meta.count&#45;boundary (count boundary fixup)&#45;&gt;[root] output.vm_user -->
<g id="edge22" class="edge"><title>[root] meta.count&#45;boundary (count boundary fixup)&#45;&gt;[root] output.vm_user</title>
<path fill="none" stroke="black" d="M360.325,-433.203C413.256,-421.441 485.047,-405.487 537.027,-393.936"/>
<polygon fill="black" stroke="black" points="537.817,-397.346 546.82,-391.76 536.299,-390.513 537.817,-397.346"/>
</g>
<!-- [root] output.vm_dns_name&#45;&gt;[root] azurerm_public_ip.az_cace_dev02mo01_publicip -->
<g id="edge23" class="edge"><title>[root] output.vm_dns_name&#45;&gt;[root] azurerm_public_ip.az_cace_dev02mo01_publicip</title>
<path fill="none" stroke="black" d="M227.263,-287.697C226.381,-279.983 225.322,-270.712 224.339,-262.112"/>
<polygon fill="black" stroke="black" points="227.808,-261.642 223.195,-252.104 220.853,-262.437 227.808,-261.642"/>
</g>
<!-- [root] output.vm_pass&#45;&gt;[root] var.vm&#45;pass -->
<g id="edge24" class="edge"><title>[root] output.vm_pass&#45;&gt;[root] var.vm&#45;pass</title>
<path fill="none" stroke="black" d="M413.915,-359.697C416.955,-351.813 420.623,-342.304 424.001,-333.546"/>
<polygon fill="black" stroke="black" points="427.31,-334.694 427.643,-324.104 420.779,-332.175 427.31,-334.694"/>
</g>
<!-- [root] output.vm_public_ip&#45;&gt;[root] azurerm_public_ip.az_cace_dev02mo01_publicip -->
<g id="edge25" class="edge"><title>[root] output.vm_public_ip&#45;&gt;[root] azurerm_public_ip.az_cace_dev02mo01_publicip</title>
<path fill="none" stroke="black" d="M102.881,-359.696C99.0974,-340.521 96.1865,-309.474 110.24,-288 119.198,-274.313 132.734,-264.071 147.306,-256.439"/>
<polygon fill="black" stroke="black" points="148.992,-259.511 156.481,-252.016 145.953,-253.205 148.992,-259.511"/>
</g>
<!-- [root] output.vm_user&#45;&gt;[root] var.vm&#45;user -->
<g id="edge26" class="edge"><title>[root] output.vm_user&#45;&gt;[root] var.vm&#45;user</title>
<path fill="none" stroke="black" d="M604.488,-359.697C604.598,-351.983 604.73,-342.712 604.853,-334.112"/>
<polygon fill="black" stroke="black" points="608.353,-334.153 604.996,-324.104 601.354,-334.053 608.353,-334.153"/>
</g>
<!-- [root] provider.azurerm (close) -->
<g id="node20" class="node"><title>[root] provider.azurerm (close)</title>
<ellipse fill="none" stroke="black" cx="1175.24" cy="-450" rx="120.779" ry="18"/>
<text text-anchor="middle" x="1175.24" y="-446.3" font-family="Times,serif" font-size="14.00">[root] provider.azurerm (close)</text>
</g>
<!-- [root] provider.azurerm (close)&#45;&gt;[root] azurerm_virtual_machine.az_cace_dev02mo01_vm -->
<g id="edge27" class="edge"><title>[root] provider.azurerm (close)&#45;&gt;[root] azurerm_virtual_machine.az_cace_dev02mo01_vm</title>
<path fill="none" stroke="black" d="M1115.7,-434.326C1073.5,-423.924 1016.43,-409.856 970.395,-398.51"/>
<polygon fill="black" stroke="black" points="970.997,-395.054 960.45,-396.059 969.322,-401.85 970.997,-395.054"/>
</g>
<!-- [root] provisioner.file (close) -->
<g id="node21" class="node"><title>[root] provisioner.file (close)</title>
<ellipse fill="none" stroke="black" cx="614.24" cy="-450" rx="113.98" ry="18"/>
<text text-anchor="middle" x="614.24" y="-446.3" font-family="Times,serif" font-size="14.00">[root] provisioner.file (close)</text>
</g>
<!-- [root] provisioner.file (close)&#45;&gt;[root] azurerm_virtual_machine.az_cace_dev02mo01_vm -->
<g id="edge28" class="edge"><title>[root] provisioner.file (close)&#45;&gt;[root] azurerm_virtual_machine.az_cace_dev02mo01_vm</title>
<path fill="none" stroke="black" d="M671.972,-434.411C713.185,-423.996 769.065,-409.875 814.098,-398.495"/>
<polygon fill="black" stroke="black" points="814.988,-401.88 823.825,-396.036 813.273,-395.093 814.988,-401.88"/>
</g>
<!-- [root] provisioner.remote&#45;exec (close) -->
<g id="node22" class="node"><title>[root] provisioner.remote&#45;exec (close)</title>
<ellipse fill="none" stroke="black" cx="891.24" cy="-450" rx="145.674" ry="18"/>
<text text-anchor="middle" x="891.24" y="-446.3" font-family="Times,serif" font-size="14.00">[root] provisioner.remote&#45;exec (close)</text>
</g>
<!-- [root] provisioner.remote&#45;exec (close)&#45;&gt;[root] azurerm_virtual_machine.az_cace_dev02mo01_vm -->
<g id="edge29" class="edge"><title>[root] provisioner.remote&#45;exec (close)&#45;&gt;[root] azurerm_virtual_machine.az_cace_dev02mo01_vm</title>
<path fill="none" stroke="black" d="M891.24,-431.697C891.24,-423.983 891.24,-414.712 891.24,-406.112"/>
<polygon fill="black" stroke="black" points="894.741,-406.104 891.24,-396.104 887.741,-406.104 894.741,-406.104"/>
</g>
<!-- [root] root -->
<g id="node23" class="node"><title>[root] root</title>
<ellipse fill="none" stroke="black" cx="752.24" cy="-522" rx="47.3916" ry="18"/>
<text text-anchor="middle" x="752.24" y="-518.3" font-family="Times,serif" font-size="14.00">[root] root</text>
</g>
<!-- [root] root&#45;&gt;[root] meta.count&#45;boundary (count boundary fixup) -->
<g id="edge30" class="edge"><title>[root] root&#45;&gt;[root] meta.count&#45;boundary (count boundary fixup)</title>
<path fill="none" stroke="black" d="M709.098,-514.477C638.235,-503.764 495.162,-482.133 395.852,-467.118"/>
<polygon fill="black" stroke="black" points="396.19,-463.63 385.779,-465.595 395.144,-470.551 396.19,-463.63"/>
</g>
<!-- [root] root&#45;&gt;[root] provider.azurerm (close) -->
<g id="edge31" class="edge"><title>[root] root&#45;&gt;[root] provider.azurerm (close)</title>
<path fill="none" stroke="black" d="M794.736,-513.968C862.889,-502.689 998.042,-480.324 1087.54,-465.512"/>
<polygon fill="black" stroke="black" points="1088.12,-468.965 1097.41,-463.879 1086.97,-462.059 1088.12,-468.965"/>
</g>
<!-- [root] root&#45;&gt;[root] provisioner.file (close) -->
<g id="edge32" class="edge"><title>[root] root&#45;&gt;[root] provisioner.file (close)</title>
<path fill="none" stroke="black" d="M724.976,-507.17C705.162,-497.12 677.994,-483.339 655.527,-471.942"/>
<polygon fill="black" stroke="black" points="657.041,-468.786 646.54,-467.384 653.874,-475.029 657.041,-468.786"/>
</g>
<!-- [root] root&#45;&gt;[root] provisioner.remote&#45;exec (close) -->
<g id="edge33" class="edge"><title>[root] root&#45;&gt;[root] provisioner.remote&#45;exec (close)</title>
<path fill="none" stroke="black" d="M779.702,-507.17C799.521,-497.19 826.644,-483.531 849.181,-472.181"/>
<polygon fill="black" stroke="black" points="850.847,-475.261 858.204,-467.637 847.699,-469.009 850.847,-475.261"/>
</g>
</g>
</svg>
